<svg xmlns="http://www.w3.org/2000/svg" width="48" height="48" viewBox="0 0 48 48"><path fill="#2196F3" d="M6,10c0-2.209,1.791-4,4-4h28c2.209,0,4,1.791,4,4v28c0,2.209-1.791,4-4,4H10c-2.209,0-4-1.791-4-4V10z"/><path fill="#FFF" d="M29,25.423c0,2.103-0.479,3.726-1.436,4.866C26.605,31.43,25.257,32,23.516,32c-1.756,0-3.114-0.574-4.075-1.722C18.48,29.129,18,27.512,18,25.423v-2.846c0-2.103,0.478-3.725,1.436-4.865C20.394,16.571,21.746,16,23.495,16c1.748,0,3.103,0.574,4.064,1.722C28.519,18.87,29,20.492,29,22.589V25.423z M25.348,22.118c0-1.12-0.148-1.956-0.444-2.509c-0.296-0.553-0.766-0.828-1.409-0.828c-0.628,0-1.085,0.256-1.371,0.77c-0.286,0.514-0.439,1.29-0.461,2.332v3.978c0,1.163,0.148,2.014,0.444,2.552c0.296,0.538,0.765,0.807,1.409,0.807c0.622,0,1.08-0.263,1.376-0.785c0.296-0.525,0.448-1.346,0.455-2.466V22.118z"/></svg>